<svg width="55" height="55" viewBox="0 0 55 55" fill="none" xmlns="http://www.w3.org/2000/svg">
<g clip-path="url(#clip0_12_6)">
<path d="M12.6615 36.6668H0V27.7866H18.0469C23.1076 27.7866 27.2135 31.8925 27.2135 36.9533V55.0002H18.3333V42.3387L5.67188 55.0002H0V49.3283L12.6615 36.6668Z" fill="#013E39"/>
<path d="M36.6667 42.3387V55.0002H27.7865V36.9533C27.7865 31.8925 31.8924 27.7866 36.9532 27.7866H55V36.6668H42.3386L55 49.3283V55.0002H49.3282L36.6667 42.3387Z" fill="#013E39"/>
<path d="M42.3386 18.3333H55V27.2135H36.9532C31.8924 27.2135 27.7865 23.1076 27.7865 18.0469V0H36.6667V12.6615L49.3282 0H55V5.67188L42.3386 18.3333Z" fill="#013E39"/>
<path d="M18.3333 12.6615V0H27.2135V18.0469C27.2135 23.1076 23.1076 27.2135 18.0469 27.2135H0V18.3333H12.6615L0 5.67188V0H5.67188L18.3333 12.6615Z" fill="#013E39"/>
</g>
<defs>
<clipPath id="clip0_12_6">
<rect width="55" height="55" fill="white"/>
</clipPath>
</defs>
</svg>
