<svg xmlns="http://www.w3.org/2000/svg" width="16" height="16" viewBox="0 0 16 16" fill="none">
<path d="M8.00065 1.33331C4.32065 1.33331 1.33398 4.31998 1.33398 7.99998C1.33398 11.68 4.32065 14.6666 8.00065 14.6666C11.6807 14.6666 14.6673 11.68 14.6673 7.99998C14.6673 4.31998 11.6807 1.33331 8.00065 1.33331ZM8.66732 12.6666H7.33398V11.3333H8.66732V12.6666ZM10.0473 7.49998L9.44732 8.11331C9.11398 8.45331 8.87398 8.75998 8.75398 9.23998C8.70065 9.45331 8.66732 9.69331 8.66732 9.99998H7.33398V9.66665C7.33398 9.35998 7.38732 9.06665 7.48065 8.79331C7.61398 8.40665 7.83398 8.05998 8.11398 7.77998L8.94065 6.93998C9.24732 6.64665 9.39398 6.20665 9.30732 5.73998C9.22065 5.25998 8.84732 4.85331 8.38065 4.71998C7.64065 4.51331 6.95398 4.93331 6.73398 5.56665C6.65399 5.81331 6.44732 5.99998 6.18732 5.99998H5.98732C5.60065 5.99998 5.33398 5.62665 5.44065 5.25331C5.72732 4.27331 6.56065 3.52665 7.59398 3.36665C8.60732 3.20665 9.57399 3.73331 10.174 4.56665C10.9607 5.65331 10.7273 6.81998 10.0473 7.49998Z" fill="#013e39"></path>
</svg>