<svg width="62" height="62" viewBox="0 0 62 62" fill="none" xmlns="http://www.w3.org/2000/svg">
<g clip-path="url(#clip0_12_14)">
<path d="M40.8059 27.1248L55.617 23.153C55.3587 22.3241 55.0466 21.5169 54.7021 20.7203L40.1386 24.6276L52.883 17.2759C52.4202 16.5439 51.925 15.8335 51.3976 15.1554L38.8469 22.3887L48.8788 12.3568C48.2545 11.754 47.6087 11.1943 46.9198 10.6561L37.017 20.5589L43.9059 8.62171C43.1632 8.19116 42.3882 7.79289 41.6025 7.43768L34.7781 19.2672L38.2764 6.2106C37.4476 5.96303 36.608 5.76928 35.7684 5.60782L32.2917 18.6106V5.1988C31.8611 5.17727 31.4306 5.1665 31 5.1665C30.5695 5.1665 30.1389 5.17727 29.7084 5.1988V18.6106L26.2316 5.61859C25.3813 5.78005 24.5417 5.9738 23.7236 6.22136L27.2219 19.278L20.3868 7.44845C19.6011 7.80366 18.8368 8.20192 18.0834 8.63248L24.9722 20.5696L15.0695 10.6669C14.3913 11.205 13.7347 11.7648 13.1104 12.3675L23.1424 22.3995L10.6024 15.1554C10.075 15.8335 9.56911 16.5439 9.11703 17.2759L26.1778 27.1248H5.45731C5.32814 27.9859 5.24203 28.8471 5.19897 29.7082H56.8011C56.758 28.8471 56.6719 27.9859 56.5427 27.1248H40.8059Z" fill="#082E2B"/>
<path d="M5.45731 34.8748H21.1941L6.383 38.8467C6.64134 39.6755 6.95349 40.4828 7.29793 41.2794L21.8615 37.3721L9.11703 44.7238C9.57988 45.4557 10.075 46.1662 10.6024 46.8443L23.1531 39.6109L13.1212 49.6429C13.7455 50.2457 14.3913 50.8054 15.0802 51.3436L24.983 41.4408L18.0941 53.378C18.8368 53.8085 19.6118 54.2068 20.3976 54.562L27.2219 42.7325L23.7236 55.7891C24.5524 56.0366 25.392 56.2304 26.2316 56.3919L29.7084 43.3891V56.8009C30.1389 56.8224 30.5695 56.8332 31 56.8332C31.4306 56.8332 31.8611 56.8224 32.2917 56.8009V43.3891L35.7684 56.3811C36.6188 56.2196 37.4584 56.0259 38.2764 55.7783L34.7781 42.7217L41.6025 54.5512C42.3882 54.196 43.1525 53.7978 43.9059 53.3672L37.017 41.43L46.9198 51.3328C47.5979 50.7946 48.2545 50.2349 48.8788 49.6321L38.8469 39.6109L51.3868 46.855C51.9143 46.1769 52.4202 45.4665 52.8722 44.7346L35.8222 34.8748H56.5427C56.6719 34.0137 56.758 33.1526 56.8011 32.2915H5.19897C5.24203 33.1526 5.32814 34.0137 5.45731 34.8748Z" fill="#082E2B"/>
</g>
<defs>
<clipPath id="clip0_12_14">
<rect width="62" height="62" fill="white"/>
</clipPath>
</defs>
</svg>
