<svg width="16" height="16" viewBox="0 0 16 16" fill="#feefca" xmlns="http://www.w3.org/2000/svg">
<path d="M6.00016 14C6.00016 14.3334 6.26683 14.6667 6.66683 14.6667H9.3335C9.7335 14.6667 10.0002 14.3334 10.0002 14V13.3334H6.00016V14ZM8.00016 1.33337C5.40016 1.33337 3.3335 3.40004 3.3335 6.00004C3.3335 7.60004 4.1335 9.00004 5.3335 9.80004V11.3334C5.3335 11.6667 5.60016 12 6.00016 12H10.0002C10.4002 12 10.6668 11.6667 10.6668 11.3334V9.80004C11.8668 8.93337 12.6668 7.53337 12.6668 6.00004C12.6668 3.40004 10.6002 1.33337 8.00016 1.33337Z" fill="#feefca"></path>
</svg>